<svg id="togglicons" data-name="togglicons" xmlns="http://www.w3.org/2000/svg" viewBox="0 0 1168.38 296.68">
  <defs>
    <style>
      .cls-1{fill:#66747e;}.cls-2{fill:#c0c5ce;}
    </style>
  </defs>
  <title>togglicons</title>
  <g id="g1">
    <path class="cls-2" id="g1-bottom" d="M357.57 175.56A63.47 63.47 0 0 0 306.7 150h-.11a6.56 6.56 0 0 0-6.55 6.56 6.55 6.55 0 0 0 6.55 6.52h.09a50.31 50.31 0 1 1-48.21 36.39l.11-.34 3.4 13.07a6.56 6.56 0 1 0 12.69-3.3l-7.72-29.64-1.62-6.22-6.28 1.52-30.15 7.19a6.56 6.56 0 1 0 3 12.76l15.59-3.72q-1 2.5-1.7 5.1a63.36 63.36 0 1 0 111.78-20.33z"
    />
    <path class="cls-1" id="g1-top" d="M389.12 143.33a6.55 6.55 0 0 0-7.9-4.86l-15.59 3.72q1-2.51 1.7-5.11a63.29 63.29 0 1 0-60.86 45.91h.11a6.56 6.56 0 0 0 6.55-6.54 6.56 6.56 0 0 0-6.56-6.55h-.1a50.31 50.31 0 1 1 48.26-36.4l-.11.34-3.4-13.07a6.56 6.56 0 1 0-12.69 3.3l7.72 29.64 1.62 6.22 6.25-1.49 30.15-7.19a6.55 6.55 0 0 0 4.85-7.92z"
    />
  </g>
  <g id="g2">
    <path class="cls-1" id="g2-bottom" d="M513.57 175.56A63.47 63.47 0 0 0 462.7 150h-.11a6.56 6.56 0 0 0-6.55 6.56 6.55 6.55 0 0 0 6.55 6.48h.09a50.31 50.31 0 1 1-48.21 36.43l.11-.34 3.4 13.07a6.56 6.56 0 1 0 12.69-3.3l-7.72-29.64-1.62-6.22-6.28 1.52-30.15 7.19a6.56 6.56 0 1 0 3 12.76l15.59-3.72q-1 2.5-1.7 5.1a63.36 63.36 0 1 0 111.78-20.33z"
    />
    <path class="cls-2" id="g2-top" d="M545.12 143.33a6.55 6.55 0 0 0-7.9-4.86l-15.59 3.72q1-2.51 1.7-5.11a63.29 63.29 0 1 0-60.86 45.91h.11a6.55 6.55 0 0 0 6.54-6.53 6.56 6.56 0 0 0-6.56-6.55h-.09a50.31 50.31 0 1 1 48.26-36.4l-.11.34-3.4-13.07a6.56 6.56 0 1 0-12.69 3.3l7.72 29.64 1.62 6.22 6.25-1.49 30.15-7.19a6.55 6.55 0 0 0 4.85-7.93z"
    />
  </g>
  <path class="cls-1" d="M59.17 58.56a8.64 8.64 0 0 0-2.81-3.34 7.27 7.27 0 0 0-4.16-1.41H37.56V8.67a6.52 6.52 0 0 0-.73-2.93 8.81 8.81 0 0 0-3-3.33 8.1 8.1 0 0 0-4.39-1.38 6.85 6.85 0 0 0-2.89.67 8.63 8.63 0 0 0-3.34 2.81 7.27 7.27 0 0 0-1.41 4.16v45.09H7.65a11.33 11.33 0 0 0-4.1.63 5.44 5.44 0 0 0-2.08 1.36 5.5 5.5 0 0 0-1.33 2.88 16.49 16.49 0 0 0-.16 2.78 18.67 18.67 0 0 0 .11 2.45 6.59 6.59 0 0 0 .55 2 5 5 0 0 0 2.49 2.43 10.61 10.61 0 0 0 4.5.8h14.13v89.89a23 23 0 0 0 6.71 16.58 23.63 23.63 0 0 0 16.76 6.61 8.06 8.06 0 0 0 5.38-2.33 8.65 8.65 0 0 0 1.86-2.36 6.56 6.56 0 0 0 .73-2.93 6.81 6.81 0 0 0-.73-2.99 9.38 9.38 0 0 0-2.93-3.45 7.39 7.39 0 0 0-4.25-1.5 6.55 6.55 0 0 1-2.2-.48 9.57 9.57 0 0 1-3.77-2.6 6.93 6.93 0 0 1-1.74-4.64V69.05h14.61a6.85 6.85 0 0 0 2.89-.67 8.64 8.64 0 0 0 3.39-2.82 7.27 7.27 0 0 0 1.41-4.16 6.85 6.85 0 0 0-.71-2.84zM568.71 2.25A8 8 0 0 0 563.12 0a7.73 7.73 0 0 0-7.65 7.64v166.92a7.73 7.73 0 0 0 7.64 7.64 8 8 0 0 0 5.59-2.25 7.53 7.53 0 0 0 2.31-5.39V7.64a7.53 7.53 0 0 0-2.3-5.39zm38.89 51.51a7.68 7.68 0 0 0-5.36 2.15 7.58 7.58 0 0 0-2.28 5.49v113.16a7.73 7.73 0 0 0 7.64 7.64 8 8 0 0 0 5.59-2.25 7.53 7.53 0 0 0 2.28-5.39V61.4a7.48 7.48 0 0 0-2.33-5.51 8.06 8.06 0 0 0-5.54-2.13zm5.59-38.71a8 8 0 0 0-5.59-2.25 7.73 7.73 0 0 0-7.64 7.64v5.89a8.42 8.42 0 0 0 2.22 5.69 7.4 7.4 0 0 0 5.42 2.47 7.74 7.74 0 0 0 5.63-2.45 8.3 8.3 0 0 0 2.27-5.7v-5.9a7.53 7.53 0 0 0-2.31-5.39zm376.47 38.97a52.3 52.3 0 0 0-37.41 15.81v-8.17a7.79 7.79 0 0 0-2.1-5.35 7.23 7.23 0 0 0-5.28-2.3 7.58 7.58 0 0 0-5.49 2.28 7.68 7.68 0 0 0-2.15 5.37v115l.28.28a2.39 2.39 0 0 0 .06.36 2.29 2.29 0 0 0 .39.78 8.2 8.2 0 0 0 5 4l.2.06h1.75a7.51 7.51 0 0 0 3.24-.72 6.52 6.52 0 0 0 2.51-2.11 5.37 5.37 0 0 0 1.08-1.72 13 13 0 0 0 .51-1.7v-69.4a38.43 38.43 0 0 1 11.22-26.27 37.08 37.08 0 0 1 63.33 26.23v68.11a7.58 7.58 0 0 0 2.28 5.49 7.76 7.76 0 0 0 10.73 0 7.58 7.58 0 0 0 2.28-5.49v-68.1a52.58 52.58 0 0 0-52.43-52.44zm174.57 75.89a33.24 33.24 0 0 0-10.6-11.4 88.7 88.7 0 0 0-31-10.41h-.61c-11.29-1.76-19.49-4.78-24.84-8.42a20 20 0 0 1-5-5.34 11.37 11.37 0 0 1-1.55-6 14.08 14.08 0 0 1 1.84-6.88 21.69 21.69 0 0 1 5.51-6.34c5-4.08 12.9-6.84 22.86-6.83a36.33 36.33 0 0 1 15.87 3.82 113.51 113.51 0 0 1 14 8.47 7.68 7.68 0 0 0 4.13 1.2 7.54 7.54 0 0 0 6.39-3.45 7.7 7.7 0 0 0 1.2-4.14 8.15 8.15 0 0 0-3.37-6.58 117.41 117.41 0 0 0-16.5-9.2 54.07 54.07 0 0 0-21.68-4.6c-13.06 0-23.85 3.39-31.57 8.71a37.39 37.39 0 0 0-10.17 11.21 29 29 0 0 0-4 14.57 26.22 26.22 0 0 0 4 14 29.64 29.64 0 0 0 10.21 9.81 47.12 47.12 0 0 0 13 6.19 127 127 0 0 0 15.72 3.72l.33.16.2.1h.22c12.15 2 20.91 5.08 25.94 8.91a27.85 27.85 0 0 1 6.42 7.06 15 15 0 0 1 2 7.15 14.34 14.34 0 0 1-2.21 7.45 21.7 21.7 0 0 1-6.59 6.64h-.12c-5.31 4.36-13.45 7.34-22.86 7.34a53.38 53.38 0 0 1-21.29-4.77 85.35 85.35 0 0 1-16.22-9.53 7.83 7.83 0 0 0-4.91-1.76 7.48 7.48 0 0 0-5.85 2.8l-.12.15.12-.15a7.42 7.42 0 0 0-1.69 4.65 7.53 7.53 0 0 0 2.63 5.6 89.75 89.75 0 0 0 19.76 12.14 70.1 70.1 0 0 0 27.5 6.11 52.67 52.67 0 0 0 32.14-10.15 41.51 41.51 0 0 0 10.72-11.56 28.8 28.8 0 0 0 4.21-15 31.49 31.49 0 0 0-4.17-15.45zm-969.8-28.33zm1.16-26.41a63.64 63.64 0 0 0-19.9-13.67 59.39 59.39 0 0 0-24.22-4.94 60.41 60.41 0 0 0-24.4 5 63.13 63.13 0 0 0-20 13.66 64.1 64.1 0 0 0-13.4 20.18 62 62 0 0 0-4.86 24.45 60.92 60.92 0 0 0 4.85 24.29 62.12 62.12 0 0 0 33.39 33.25 61.76 61.76 0 0 0 24.38 4.86h.04a60.91 60.91 0 0 0 24.29-4.85 62.72 62.72 0 0 0 19.88-13.38 64.87 64.87 0 0 0 13.55-19.93 59.4 59.4 0 0 0 5-24.24 60.43 60.43 0 0 0-5-24.4 66.27 66.27 0 0 0-13.6-20.28zm4.88 44.63a47.51 47.51 0 0 1-3.83 19.06v.11a49.28 49.28 0 0 1-10.36 15.25 48.74 48.74 0 0 1-15.43 10.37h-.07a48.52 48.52 0 0 1-19.31 3.89 48.52 48.52 0 0 1-19.09-3.79h-.16a48.69 48.69 0 0 1-15.41-10.34 49.13 49.13 0 0 1-10.31-15.2v-.2a47.45 47.45 0 0 1-3.79-19 49.59 49.59 0 0 1 3.8-19.29 48.36 48.36 0 0 1 10.41-15.67 48.87 48.87 0 0 1 15.54-10.42 48.58 48.58 0 0 1 19.01-4.01 48.59 48.59 0 0 1 19.17 3.82 48.92 48.92 0 0 1 15.47 10.38 48.51 48.51 0 0 1 10.43 15.72 49.69 49.69 0 0 1 3.8 19.29zm551.82 37.65a8 8 0 0 0-6-2.72 7.58 7.58 0 0 0-4.48 1.47 51.84 51.84 0 0 1-67.34-3.64 48.2 48.2 0 0 1 0-69.34 51.38 51.38 0 0 1 36-14.42 50 50 0 0 1 31.32 10.94 7.58 7.58 0 0 0 4.48 1.47 8 8 0 0 0 6-2.72 7.82 7.82 0 0 0 1.81-5 6.87 6.87 0 0 0-2.81-5.62 66.06 66.06 0 0 0-40.8-14.11 66.92 66.92 0 0 0-46.74 18.6 62.76 62.76 0 0 0-19.26 45.36 63.46 63.46 0 0 0 19.23 45.84 67.25 67.25 0 0 0 87.07 5 7.88 7.88 0 0 0 3.29-6.27 7.59 7.59 0 0 0-1.77-4.82zm137.13-82.28a63.63 63.63 0 0 0-19.95-13.67 59.39 59.39 0 0 0-24.23-5 60.41 60.41 0 0 0-24.4 5 63.13 63.13 0 0 0-20 13.66 64.1 64.1 0 0 0-13.37 20.19 62 62 0 0 0-4.86 24.45 60.92 60.92 0 0 0 4.86 24.29 62.12 62.12 0 0 0 33.39 33.25 61.76 61.76 0 0 0 24.38 4.86h.07a60.91 60.91 0 0 0 24.29-4.85 62.72 62.72 0 0 0 19.87-13.38 64.88 64.88 0 0 0 13.55-19.93 59.4 59.4 0 0 0 5-24.24 60.44 60.44 0 0 0-5-24.4 66.28 66.28 0 0 0-13.6-20.23zm4.84 44.64a47.51 47.51 0 0 1-3.83 19 49.29 49.29 0 0 1-10.39 15.32 48.75 48.75 0 0 1-15.48 10.4h-.06a48.52 48.52 0 0 1-19.18 3.82 48.52 48.52 0 0 1-19.11-3.79h-.15a48.69 48.69 0 0 1-15.38-10.32 49.13 49.13 0 0 1-10.35-15.25v-.15a47.44 47.44 0 0 1-3.8-19 49.59 49.59 0 0 1 3.8-19.27v-.05a48.36 48.36 0 0 1 10.41-15.65 48.87 48.87 0 0 1 15.54-10.42 48.58 48.58 0 0 1 18.98-3.89 48.59 48.59 0 0 1 19.21 3.79h.06A48.9 48.9 0 0 1 880 84.74a48.51 48.51 0 0 1 10.47 15.75 49.67 49.67 0 0 1 3.8 19.2v.1z"
  />
</svg>
